PathFileType	4	(X/Y/Z)	C:/Users/beibeiliu/ov580/test_trc/User1\sequence.18_training_dense_right.trc
DataRate	CameraRate	NumFrames	NumMarkers	Units	OrigDataRate	OrigDataStartFrame	OrigNumFrames
120	120	24	19	mm	120	179	286
Frame#	Time	ThumbCMC			ThumbMCP			ThumbIP			ThumbTip			IndexMCP			IndexPIP			IndexTip			MiddleMCP			MiddlePIP			MiddleTip			RingMCP			RingPIP			RingTip			PinkyMCP			PinkyPIP			PinkyTip			BackHand1			BackHand2			BackHand3	
		X0	Y0	Z0	X1	Y1	Z1	X2	Y2	Z2	X3	Y3	Z3	X4	Y4	Z4	X5	Y5	Z5	X6	Y6	Z6	X7	Y7	Z7	X8	Y8	Z8	X9	Y9	Z9	X10	Y10	Z10	X11	Y11	Z11	X12	Y12	Z12	X13	Y13	Z13	X14	Y14	Z14	X15	Y15	Z15	X16	Y16	Z16	X17	Y17	Z17	X18	Y18	Z18	
178	1.48333	124.332	27.7677	51.6947	103.439	5.88044	19.7511	108.527	-8.59387	-6.82773	135.693	-22.0327	-18.8928	118.528	34.6121	-33.5244	111.749	3.59144	-46.2647	109.222	-6.07462	-9.93425	142.242	26.5047	-44.322	128.698	-4.81935	-50.6653	133.563	-8.28128	-7.81276	161.18	13.9324	-44.3104	153.085	-16.9113	-45.6422	151.66	-22.4844	-12.4299	182.268	7.05446	-27.2339	165.104	-16.4831	-33.2798	158.293	-24.214	-2.26885	181.151	39.0623	13.358	192.172	42.3269	44.9925	155.145	50.5489	34.5139	
179	1.49167	123.229	32.7103	47.4781	103.709	10.5808	22.0748	108.446	-4.78508	-0.894181	131.004	-20.975	-14.0721	123.134	30.7783	-39.9021	107.909	3.7353	-44.5671	110.949	-5.57099	-11.8496	144.406	24.0901	-45.1478	130.817	-8.13795	-50.2145	132.529	-11.7897	-10.1613	165.305	7.87617	-43.5043	145.548	-20.0161	-42.3705	146.355	-22.5525	-7.86163	178.868	-1.00292	-29.2973	161.932	-20.6951	-31.5105	154.532	-25.943	1.76231	185.844	34.0644	12.9532	194.624	37.1439	46.2729	157.804	52.0361	33.5746	
180	1.5	127.252	36.1034	46.8146	101.413	15.7818	23.2164	107.851	-1.84491	-3.72778	126.508	-24.4701	-15.1104	128.559	32.291	-36.9159	111.77	2.16624	-44.4261	105.195	-1.58306	-10.0812	145.927	18.4683	-47.1073	126.509	-8.75616	-47.8297	129.505	-10.7024	-8.14734	162.141	5.7801	-41.1283	143.374	-25.2388	-39.5943	141.185	-25.6553	-8.74111	181.364	-5.96717	-24.8498	158.822	-26.669	-30.1156	150.441	-29.1806	1.78781	189.471	29.2601	8.4781	197.687	34.7391	47.136	163.239	52.0213	32.0266	
181	1.50833	128.789	41.0174	43.6612	102.858	22.8472	19.1502	104.542	3.5933	-2.08573	123.125	-19.6396	-11.657	130.596	33.33	-39.2621	111.257	5.80966	-44.971	105.224	2.97384	-12.4025	151.283	16.0563	-45.8707	126.453	-9.77724	-47.3884	123.501	-6.26634	-6.99222	167.191	-1.52746	-40.3652	141.817	-26.4749	-39.5265	134.081	-22.7214	-7.86988	179.549	-15.0128	-25.9792	154.339	-29.0161	-27.235	141.392	-28.8874	-0.000363957	188.213	26.6274	13.4346	196.938	30.7597	44.6617	167.401	48.0492	31.0396	
182	1.51667	132.391	48.763	43.3851	105.794	32.7445	20.3125	105.467	9.43294	-8.04736	121.813	-17.0805	-11.5401	135.252	33.2934	-43.8176	114.018	8.99395	-47.2943	105.339	7.14713	-14.6304	152.904	15.0615	-45.1238	127.425	-8.67167	-48.5267	120.078	-0.812934	-6.73596	164.236	-2.20074	-38.2848	135.572	-25.7746	-38.8705	132.559	-22.8378	-4.78668	175.068	-19.4163	-24.8562	148.196	-28.9855	-25.5155	134.235	-26.1574	0.679004	191.429	20.1165	10.0715	200.2	21.5224	47.4095	173.633	49.8941	28.9345	
183	1.525	143.405	51.3467	41.1663	112.873	41.9314	15.2103	106.66	21.1456	-7.56128	116.846	-10.4807	-11.6225	147.037	32.6671	-40.7196	117.419	17.5405	-50.3391	101.832	18.4746	-19.61	157.176	8.65004	-45.1956	123.756	-5.49118	-46.9588	122.054	3.24233	-7.86679	160.699	-10.1305	-40.5317	128.499	-21.7779	-36.0071	125.043	-15.4447	-4.75677	170.936	-26.8368	-18.5103	141.079	-31.4916	-24.1215	129.075	-19.9136	6.14347	193.585	10.4437	13.0106	200.752	13.6555	49.5272	180.698	45.1018	26.9841	
184	1.53333	153.981	57.3758	35.7378	125.733	50.7673	9.99051	114.581	29.9801	-11.1232	117.439	0.671344	-11.6384	154.028	33.4296	-45.1336	122.771	22.3716	-52.2241	108.179	27.3566	-22.1073	159.487	6.05971	-47.4579	127.814	-0.96928	-49.7542	122.174	11.6769	-9.01778	160.094	-11.97	-36.0995	125.608	-14.4076	-37.8278	121.984	-8.71773	-4.06786	163.225	-27.2573	-15.8156	132.858	-30.945	-22.9795	121.527	-17.7385	5.17083	191.884	2.57435	16.0309	199.835	7.98313	47.9448	188.82	37.4194	27.7236	
185	1.54167	164.757	55.8213	36.5863	133.852	59.645	8.98597	123.367	37.7101	-10.9252	117.372	7.42556	-13.4541	162.165	29.2219	-47.3971	133.062	25.4008	-56.692	116.618	36.7372	-22.1397	161.699	6.43076	-50.0288	127.491	4.76953	-49.2875	124.293	16.5592	-14.6831	155.912	-16.1525	-38.4415	126.21	-15.0572	-39.6356	119.397	0.451759	-7.83231	158.158	-29.3015	-14.2765	128.041	-23.9407	-22.5776	118.702	-10.2348	2.8912	190.943	-5.46739	14.9352	197.272	-1.90033	53.9694	195.909	31.4128	29.4384	
186	1.55	173.255	54.1003	36.2945	143.898	60.5085	5.6183	130.269	39.4845	-15.1834	118.665	12.0368	-16.602	170.982	26.8308	-45.4176	138.745	28.0657	-57.0691	125.058	40.8096	-26.6962	166.789	2.21875	-47.0186	133.128	7.6583	-55.1797	128.632	22.0056	-14.1513	156.094	-20.4122	-37.4553	125.876	-11.9432	-39.7002	120.443	4.31954	-10.1403	151.884	-35.9126	-15.9551	128.412	-20.2638	-23.4648	120.32	-1.71667	-0.304112	189.912	-11.3849	19.0478	197.064	-9.85833	53.4156	200.923	23.0057	24.6037	
187	1.55833	179.096	51.3333	36.2846	152.492	57.4523	4.39832	134.23	44.4117	-15.6367	118.936	16.1675	-19.285	175.632	18.907	-44.1953	142.963	28.1603	-58.7864	130.326	40.4341	-28.5887	167.986	-3.05688	-45.9268	134.59	10.4012	-52.9825	133.091	21.9729	-15.6438	156.792	-21.0569	-37.6103	128.589	-9.03835	-42.7129	122.799	6.73048	-9.62303	148.044	-36.9232	-16.1417	123.191	-21.1649	-23.052	119.443	1.50555	1.90763	188.908	-19.9397	21.7834	195.169	-13.7982	52.2404	202.301	16.9707	26.1002	
188	1.56667	183.917	47.0159	35.9191	158.447	60.8544	3.37916	141.382	42.1372	-18.9674	122.715	17.9763	-20.8323	179.961	16.1337	-46.84	148.508	23.9755	-57.5278	137.246	40.0224	-29.9237	169.84	-6.46185	-48.5824	138.233	2.59914	-54.5793	136.646	21.7657	-16.3112	158.526	-22.5729	-35.6452	128.353	-11.0106	-43.1498	123.305	5.82736	-11.4678	149.149	-34.1866	-13.5265	125.89	-17.725	-24.9299	122.302	5.38669	-0.509077	185.532	-22.4828	24.7942	193.688	-17.139	52.7724	203.751	8.11928	32.3463	
189	1.575	189.45	46.4015	31.0651	165.695	56.5261	-0.93132	145.165	41.8931	-23.316	127.806	16.7221	-19.4974	183.785	11.405	-43.6531	154.219	23.5931	-59.6493	145.606	42.1072	-33.5197	171.584	-11.2399	-47.9137	141.058	7.94321	-56.243	138.323	23.689	-21.7139	156.24	-25.5988	-37.802	130.534	-8.00941	-44.6532	124.404	5.4979	-14.4438	144.354	-37.8604	-10.5821	126.071	-15.4959	-24.6726	122.931	4.94676	-4.33269	183.648	-27.9271	24.7405	190.739	-20.0236	56.2806	204.82	6.40034	30.5971	
190	1.58333	194.712	40.4142	35.2538	173.839	52.4834	-0.866781	153.468	42.2302	-21.2066	131.638	15.9909	-20.1742	187.755	5.84327	-45.7644	160.602	19.0549	-59.9955	153.154	40.2677	-31.0604	173.791	-16.9862	-43.823	143.578	2.98829	-55.5024	143.119	20.7503	-20.0319	155.266	-27.8892	-37.3015	132.236	-9.05747	-44.9786	129.02	9.51744	-13.1982	145.323	-35.6865	-11.127	125.971	-16.1672	-26.4147	123.94	6.61667	-5.47073	179.837	-32.4469	23.1945	187.356	-24.229	59.6406	207.013	0.090827	31.3321	
191	1.59167	197.771	32.8541	30.623	179.949	48.967	2.44648	157.367	38.075	-24.663	134.209	19.227	-21.6093	186.714	-1.88516	-46.351	164.175	14.6417	-59.4072	158.461	37.0274	-34.6164	171.16	-21.5976	-47.4997	147.384	-1.08264	-57.3499	147.376	20.9839	-23.35	155.308	-32.9656	-33.1318	134.094	-8.6897	-45.0887	133.731	10.7089	-16.5312	139.908	-39.5795	-13.1355	122.726	-16.8598	-26.6912	129.736	8.60362	-5.05601	182.173	-34.3098	24.4405	185.209	-26.5532	58.5654	203.586	-8.89023	30.1822	
192	1.6	202.481	29.8065	31.4675	185.102	48.2803	-2.3164	164.12	33.0968	-22.4813	138.334	17.6116	-21.1354	193.807	-4.2992	-45.098	168.22	8.0963	-59.0874	164.915	34.7309	-31.3446	173.351	-25.5673	-46.1902	152.321	-0.429638	-57.6302	151.834	21.2181	-24.7958	155.685	-31.9289	-37.3499	133.899	-10.695	-45.1796	138.765	11.8383	-16.0808	142.211	-36.9789	-15.9254	125.853	-14.7835	-28.4751	127.096	8.48877	-7.60827	177.837	-36.8299	25.2645	183.327	-30.2372	55.8875	206.455	-11.4927	35.7162	
193	1.60833	203.481	24.8718	36.2278	189.949	41.2076	-3.56484	170.079	35.001	-21.0551	142.371	15.2728	-21.7352	197.729	-10.8949	-40.8734	175.214	5.25016	-60.6208	172.415	31.8651	-33.9246	177.761	-27.31	-45.9869	158.83	-5.95778	-59.9616	156.068	17.7424	-28.055	158.066	-37.2826	-31.9829	140.567	-9.27228	-46.183	141.257	10.2167	-16.4994	139.266	-41.7647	-11.8056	127.004	-15.4981	-28.9659	130.882	7.42025	-6.18918	176.342	-43.8686	24.4674	178.957	-35.8273	61.9098	205.809	-16.4675	37.9307	
194	1.61667	207.911	22.1521	36.2852	195.582	38.4259	-1.86646	174.645	28.8585	-23.9224	148.643	13.4104	-21.5175	197.787	-18.0481	-42.1312	179.113	1.96249	-59.4564	173.01	23.8636	-33.0935	178.708	-34.1542	-45.1484	158.585	-9.52644	-57.313	158.461	13.6277	-25.9158	159.255	-39.5499	-33.0393	141.408	-15.3471	-45.4772	140.313	4.87856	-18.6883	144.786	-41.8643	-16.1764	130.427	-22.2954	-29.8777	137.514	3.51502	-11.2555	176.991	-44.1249	25.5612	179.698	-38.6303	61.6087	207.716	-21.7833	37.0361	
195	1.625	208.611	13.9794	36.248	198.675	30.2935	0.21398	179.75	24.8331	-19.767	154.629	8.95977	-19.4028	201.449	-22.5864	-40.2366	184.846	-2.37863	-58.7746	183.54	23.5619	-31.6174	184.573	-36.925	-43.1927	165.334	-11.5898	-56.8897	160.464	8.0264	-25.0218	159.233	-43.4581	-32.7213	145.131	-18.7808	-45.709	145.752	2.94799	-18.0776	144.556	-46.3742	-15.3871	132.539	-24.6153	-30.3816	142.367	2.53676	-8.68552	178.322	-44.9002	30.1732	176.884	-40.222	62.7792	205.263	-26.0987	41.0647	
196	1.63333	209.898	10.879	39.4863	202.225	25.7522	1.91882	183.552	19.9675	-18.6797	155.768	7.63139	-23.3069	205.813	-27.8047	-39.4043	188.818	-7.49126	-56.3224	186.674	18.1814	-31.2856	184.673	-41.4825	-42.1727	167.446	-14.9915	-55.3774	167.61	5.27596	-19.5103	165.146	-46.833	-31.784	146.93	-20.9825	-45.1323	147.319	-1.40361	-17.1122	148.199	-47.6226	-13.2254	136.178	-22.9361	-29.11	139.162	1.23279	-10.7965	175.049	-54.3217	30.1772	174.222	-42.8523	67.0347	204.608	-31.1067	42.1267	
197	1.64167	210.91	6.46739	43.1496	206.53	21.0489	1.77745	188.473	14.7701	-21.1067	162.036	5.29823	-22.0992	208.216	-33.3432	-34.049	191.173	-10.9674	-53.8242	186.825	9.95658	-29.1486	189.828	-46.6842	-35.9598	173.705	-22.0513	-55.3924	170.878	-0.456475	-17.1628	167.565	-49.872	-30.014	150.253	-22.8971	-43.071	153.441	-3.6478	-18.1929	144.688	-53.3242	-10.5579	139.373	-26.3083	-29.0488	146.068	-4.6077	-9.66212	175.269	-54.8805	31.056	176.088	-43.647	68.7618	208.536	-35.3025	45.0874	
198	1.65	210.37	1.46421	45.4148	208.182	17.726	9.39186	191.542	10.605	-18.0008	161.018	-1.01945	-25.5476	213.219	-38.5533	-28.8972	194.262	-17.432	-51.2396	194.201	8.85939	-25.6173	187.228	-53.0081	-34.4544	178.532	-23.252	-52.706	174.918	-3.00736	-18.2776	166.14	-54.6479	-26.6257	154.769	-25.1662	-42.558	157.267	-7.83186	-17.6982	147.006	-55.5142	-11.661	140.627	-29.5016	-28.5758	145.997	-6.18624	-10.875	174.108	-57.1953	35.9838	175.603	-49.5658	67.0181	203.55	-39.3373	49.3915	
199	1.65833	211.406	-3.36708	44.6436	210.038	12.2267	5.65941	192.61	2.44214	-17.1355	166.322	-5.87657	-22.8437	212.202	-44.0268	-28.4541	203.057	-24.3312	-50.3355	195.327	1.11334	-26.2944	192.143	-57.6117	-32.6266	182.663	-31.4295	-51.0664	176.253	-10.0562	-15.2361	169.302	-59.3269	-25.0937	161.682	-30.5792	-42.0199	158.436	-12.5443	-12.4876	148.369	-59.5699	-7.83008	145.34	-33.2898	-28.4531	150.609	-10.1368	-8.37252	172.991	-62.9356	36.0175	172.21	-50.4405	72.1154	208.539	-41.7965	52.717	
200	1.66667	211.195	-3.75188	49.3148	211.707	10.8164	12.6384	196.168	-0.169713	-15.7246	169.642	-8.83594	-23.8048	218.66	-47.8831	-22.0977	205.304	-28.2526	-46.7056	200.215	-3.29314	-23.4396	193.961	-61.5008	-29.5443	183.863	-36.3547	-48.2931	178.8	-13.2897	-15.2402	171.673	-63.8666	-23.6215	161.65	-35.378	-39.5996	159.831	-16.3815	-10.1447	149.98	-63.3666	-7.43438	150.54	-36.97	-26.9393	152.55	-12.334	-7.23786	178.157	-63.2078	40.4349	168.428	-51.8899	75.965	205.012	-45.1702	55.305	
201	1.675	213.577	-4.10168	54.0713	215.278	5.73059	11.317	201.592	-2.21716	-11.7062	173.387	-13.3335	-22.2505	221.656	-52.1417	-17.8158	207.813	-33.479	-44.0931	204.452	-7.46803	-21.9343	196.189	-65.9508	-25.0969	191.57	-39.1913	-47.099	184.222	-15.8858	-11.6481	173.268	-68.0089	-18.9794	163.846	-42.5902	-39.5471	165.591	-18.6195	-13.0283	153.518	-65.5748	-4.66193	151.689	-44.2398	-27.6634	154.259	-17.1821	-6.31785	173.226	-66.675	42.0451	171.82	-54.2372	75.1236	206.402	-43.2202	59.3006	
